HIERARCHY
ROOT hip
{
	OFFSET 0.000000 0.000000 0.000000 
	CHANNELS 6 Xposition Yposition Zposition Xrotation Zrotation Yrotation
	JOINT abdomen
	{
		OFFSET 0.000000 3.402643 0.000000 
		CHANNELS 3 Xrotation Zrotation Yrotation
		JOINT chest
		{
			OFFSET 0.000000 8.438565 -0.680529 
			CHANNELS 3 Xrotation Zrotation Yrotation
			JOINT neck
			{
				OFFSET 0.000000 10.207942 -0.272212 
				CHANNELS 3 Xrotation Zrotation Yrotation
				JOINT head
				{
					OFFSET 0.000000 3.130431 0.000000 
					CHANNELS 3 Xrotation Zrotation Yrotation
					End Site
					{
						OFFSET 0.000000 3.130435 0.000000 
					}
				}
			}
			JOINT lCollar
			{
				OFFSET 3.470700 6.669187 -0.816635 
				CHANNELS 3 Yrotation Zrotation Xrotation
				JOINT lShldr
				{
					OFFSET 3.198488 0.000000 0.000000 
					CHANNELS 3 Zrotation Yrotation Xrotation
					JOINT lForeArm
					{
						OFFSET 10.139888 0.000000 0.000000 
						CHANNELS 3 Yrotation Zrotation Xrotation
						JOINT lHand
						{
							OFFSET 8.370511 0.000000 0.000000 
							CHANNELS 3 Zrotation Yrotation Xrotation
							End Site
							{
								OFFSET 4.083176 0.000000 0.000000 
							}
						}
					}
				}
			}
			JOINT rCollar
			{
				OFFSET -3.470700 6.669187 -0.816635 
				CHANNELS 3 Yrotation Zrotation Xrotation
				JOINT rShldr
				{
					OFFSET -3.198488 0.000000 0.000000 
					CHANNELS 3 Zrotation Yrotation Xrotation
					JOINT rForeArm
					{
						OFFSET -10.139888 0.000000 0.000000 
						CHANNELS 3 Yrotation Zrotation Xrotation
						JOINT rHand
						{
							OFFSET -8.370511 0.000000 0.000000 
							CHANNELS 3 Zrotation Yrotation Xrotation
							End Site
							{
								OFFSET -4.083176 0.000000 0.000000 
							}
						}
					}
				}
			}
		}
	}
	JOINT lThigh
	{
		OFFSET 5.308129 -1.633274 1.361059 
		CHANNELS 3 Xrotation Zrotation Yrotation
		JOINT lShin
		{
			OFFSET -2.041588 -20.007561 0.000000 
			CHANNELS 3 Xrotation Zrotation Yrotation
			JOINT lFoot
			{
				OFFSET 0.000000 -19.190928 -1.224953 
				CHANNELS 3 Xrotation Yrotation Zrotation
				End Site
				{
					OFFSET 0.000000 -2.449906 4.627600 
				}
			}
		}
	}
	JOINT rThigh
	{
		OFFSET -5.308129 -1.633274 1.361059 
		CHANNELS 3 Xrotation Zrotation Yrotation
		JOINT rShin
		{
			OFFSET 2.041588 -20.007561 0.000000 
			CHANNELS 3 Xrotation Zrotation Yrotation
			JOINT rFoot
			{
				OFFSET 0.000000 -19.190928 -1.224953 
				CHANNELS 3 Xrotation Yrotation Zrotation
				End Site
				{
					OFFSET 0.000000 -2.449906 4.627600 
				}
			}
		}
	}
}
MOTION
Frames: 15
Frame Time: 0.033333
67.774445 52.985340 54.455936 2.812500 -2.285156 56.454689 26.013586 -10.130719 -4.405488 -19.736328 11.240234 7.138673 51.553619 8.070152 2.616707 -61.093746 -13.193360 -4.025667 2.000000 -2.000000 0.000000 -84.111328 11.337891 11.964810 -50.099915 -1.739175 -1.694295 -4.704800 47.866478 5.605933 -2.000000 2.000000 0.000000 78.076172 -6.855469 21.424616 50.254524 1.610025 -1.995761 -8.223284 -57.185738 7.796780 -42.174896 17.176291 8.784479 76.522438 -1.853272 -5.613063 8.796215 11.880578 -4.170200 -2.392349 -0.400248 -23.530041 7.375942 5.668400 0.153513 0.414617 -14.029476 -2.137872 
68.347359 53.045609 55.167492 3.867188 -2.119141 55.546513 26.525137 -11.251385 -4.207027 -19.931641 11.074219 7.236329 51.553619 8.070152 2.616707 -61.503906 -13.496093 -3.896486 2.000000 -2.000000 0.000000 -85.166016 10.283202 7.480470 -50.099934 -1.729425 -1.694865 -4.725895 46.987663 5.755280 -2.000000 2.000000 0.000000 78.369141 -6.132813 20.605471 50.254524 1.610025 -1.995761 -8.565941 -57.286304 8.582480 -47.124264 15.124594 10.457779 74.791710 -1.989285 -5.355603 5.331992 13.144491 -4.081713 -2.010299 -0.915336 -23.715281 7.382241 5.643864 0.668764 -0.489190 -13.275230 -2.329048 
69.098015 53.098343 55.911789 4.570313 -2.119141 54.823856 26.868101 -12.378427 -3.992012 -20.283205 10.917969 7.324218 51.553619 8.070152 2.616707 -61.884766 -13.613279 -3.957377 2.000000 -2.000000 0.000000 -84.882813 9.335938 6.153928 -49.929302 -1.789566 -1.886922 -6.043047 45.736992 3.818124 -2.000000 2.000000 0.000000 78.818359 -5.722657 19.354496 50.254524 1.610025 -1.995761 -9.050673 -57.085533 9.843841 -51.202629 13.013585 11.981023 72.340225 -2.242728 -5.289234 2.124900 14.940549 -3.428076 -1.287845 -1.499303 -23.207521 8.078322 5.629047 0.904890 -1.393963 -12.951819 -2.080649 
70.027458 53.098343 56.651798 5.078125 -2.285156 54.257809 27.201794 -13.100681 -3.796968 -20.468750 10.751954 7.255859 51.553619 8.070152 2.616707 -62.275391 -13.740234 -3.810914 2.000000 -2.000000 0.000000 -84.335938 8.740234 5.566407 -49.740128 -1.899149 -1.753388 -8.657088 43.856236 0.453596 -2.000000 2.000000 0.000000 79.257813 -5.283204 18.612383 50.430305 1.610025 -1.995761 -9.020361 -57.485706 9.787359 -54.259361 11.773328 13.390647 69.186058 -2.359907 -5.332177 -0.852317 15.675417 -2.569132 -0.624820 -1.734072 -22.822094 8.620955 5.654899 0.738852 -1.909233 -12.655154 -1.813627 
71.058151 53.038078 57.372829 5.791016 -2.822266 53.652344 27.371347 -13.817055 -3.590003 -20.654297 10.761720 7.402344 51.553619 8.070152 2.616707 -62.646481 -13.876952 -3.508202 2.000000 -2.000000 0.000000 -83.710938 8.496094 5.753396 -49.564346 -1.899148 -1.753388 -10.444125 43.017143 -2.036039 -2.000000 2.000000 0.000000 79.755859 -4.736328 18.426928 50.970852 1.439807 -1.760949 -8.101585 -58.337219 9.181127 -56.339443 11.685463 14.189904 65.118332 -2.730434 -5.436434 -3.274374 15.698628 -2.264033 -0.176021 -1.950334 -22.514540 9.181635 5.607094 0.844010 -3.099563 -12.362885 -1.611330 
72.256302 52.955212 58.104736 6.337891 -3.330078 52.860760 27.378658 -14.210929 -3.601717 -20.644531 10.585938 7.373047 51.553619 8.070152 2.616707 -62.880859 -14.189452 -3.059036 2.000000 -2.000000 0.000000 -83.359375 8.554688 6.231924 -49.396976 -1.780308 -2.063783 -10.272275 42.868534 -2.440988 -2.000000 2.000000 0.000000 79.970703 -4.824218 18.974609 51.839180 1.457595 -1.730575 -6.564582 -59.527264 7.705728 -57.355331 11.988322 14.763902 60.211941 -3.167818 -4.973566 -5.315498 15.055658 -2.147940 0.556074 -2.448890 -21.296925 9.539759 5.660203 0.390997 -4.347500 -11.892550 -0.483215 
73.610085 52.804550 58.826012 6.865235 -4.042969 52.216110 27.028656 -14.230299 -3.577714 -20.830078 10.771485 7.179560 51.553619 8.070152 2.616707 -63.281250 -14.492187 -2.373047 2.000000 -2.000000 0.000000 -83.310547 9.013672 6.054687 -49.740108 -1.908898 -1.752818 -10.376886 43.133518 -2.253690 -2.000000 2.000000 0.000000 80.029297 -4.921875 19.354631 52.543663 1.597500 -1.781085 -6.070556 -60.022289 6.778012 -57.664726 12.489841 14.976977 55.262199 -3.557307 -4.656670 -6.924957 14.010627 -2.150266 1.189501 -2.817932 -21.324274 10.252524 5.601469 1.101988 -5.569618 -11.155052 -0.524415 
75.053535 52.578537 59.532352 7.392578 -4.892578 51.552734 26.665537 -13.998054 -3.610685 -20.830078 10.771485 7.179560 51.553619 8.070152 2.616707 -63.662109 -14.619139 -1.689454 2.000000 -2.000000 0.000000 -83.427734 9.873047 6.142578 -49.744591 -1.908831 -1.919060 -9.367724 43.766270 -1.764051 -2.000000 2.000000 0.000000 80.566406 -5.371094 19.003906 52.902618 1.427636 -2.055263 -6.562855 -59.244030 7.421446 -57.657761 12.270993 15.266400 51.289795 -4.056317 -4.616069 -8.067670 13.377459 -1.567631 2.137244 -3.269297 -20.330984 10.599359 5.609019 0.500197 -6.394968 -10.787241 0.145019 
76.533447 52.345009 60.188934 7.929688 -5.595704 50.888668 26.169703 -13.682558 -3.808277 -20.830078 10.771485 7.003778 51.553619 8.070152 2.616707 -64.433594 -14.853514 -0.920472 2.000000 -2.000000 0.000000 -84.111328 10.800781 5.372925 -49.564346 -1.899148 -1.753388 -9.472110 44.460896 -2.656426 -2.000000 2.000000 0.000000 81.367188 -5.488281 18.710007 53.246510 1.606679 -1.770771 -7.325234 -58.673046 7.934645 -57.180725 11.402961 15.272090 48.116127 -4.170650 -4.145027 -7.903333 12.706182 -0.373152 3.102411 -3.678466 -19.830976 10.956011 5.621593 0.561078 -6.951738 -10.143005 1.036916 
78.008492 52.058739 60.801422 8.310547 -6.269531 50.400394 25.817347 -13.452528 -3.863134 -21.005861 10.761720 6.806641 51.553619 8.070152 2.616707 -65.566406 -15.048826 -0.380860 2.000000 -2.000000 0.000000 -85.693359 11.640627 3.166035 -49.037003 -1.899149 -1.753388 -8.639070 46.034016 -4.657068 -2.000000 2.000000 0.000000 82.011719 -5.703125 18.250982 53.610676 1.475889 -1.876189 -8.355137 -57.528675 8.919730 -56.356903 9.941438 15.221092 45.624550 -4.137508 -4.553738 -6.656435 12.682448 1.185952 4.105764 -3.930411 -19.181076 11.481371 5.598651 0.605413 -7.595874 -9.379930 1.717820 
79.511086 51.825207 61.724388 8.486328 -6.787109 50.116032 25.650082 -13.212211 -3.945493 -21.005861 10.761720 6.806641 51.553619 8.070152 2.616707 -66.826172 -14.863278 -0.029297 2.000000 -2.000000 0.000000 -87.187500 12.548829 0.390625 -48.334171 -1.880221 -1.764274 -8.083423 48.030518 -7.688401 -2.000000 2.000000 0.000000 82.246094 -5.830078 17.695311 53.786461 1.475889 -1.876189 -9.197140 -56.940384 9.655128 -55.563675 8.436579 14.703968 43.896671 -4.413672 -3.960503 -5.849406 11.629431 2.999179 5.271163 -4.325018 -18.882727 11.675835 5.600935 0.622693 -7.334885 -9.124973 2.250540 
80.490990 52.239140 61.420166 8.496095 -7.324219 50.037815 26.009602 -12.962765 -4.024493 -21.376953 10.605469 6.884766 51.553619 8.070152 2.616707 -68.642578 -14.755858 0.283203 2.000000 -2.000000 0.000000 -88.916016 12.685546 -2.158203 -47.626411 -1.840708 -1.590253 -8.091780 50.023026 -11.145308 -2.000000 2.000000 0.000000 82.197266 -5.703125 18.242186 53.803867 1.316330 -2.159523 -9.393230 -56.912941 9.300186 -54.332520 7.352466 14.818745 42.791191 -4.345037 -4.157801 -5.954930 10.608781 4.507052 6.167886 -4.529474 -19.115868 11.841544 5.238968 0.937449 -6.960233 -8.917177 2.223548 
81.484528 52.781151 61.690479 8.486328 -7.480468 50.194042 26.521738 -12.788518 -3.985844 -21.738281 10.273438 6.954867 51.553619 8.070152 2.616707 -70.800781 -14.414061 0.292969 2.000000 -2.000000 0.000000 -90.117188 12.285156 -3.886719 -47.094257 -1.851543 -1.775730 -8.736144 51.035690 -13.129404 -2.000000 2.000000 0.000000 81.591797 -5.625000 18.916014 53.610676 1.475889 -1.876189 -9.548429 -57.051182 9.385875 -54.163204 7.018796 14.658621 45.097218 -4.192218 -4.355901 -5.953990 11.437261 4.693473 7.595251 -5.067897 -20.100983 11.130845 5.327764 1.371373 -4.847109 -8.497519 1.684096 
82.577591 53.662163 62.096310 8.330079 -7.675781 50.526039 27.056850 -12.528768 -4.092425 -22.099609 10.097657 6.865236 51.553619 8.070152 2.616707 -72.939453 -14.042966 0.468750 2.000000 -2.000000 0.000000 -91.259766 11.699220 -4.597628 -47.102966 -1.712208 -1.734987 -10.960312 50.827831 -14.088030 -2.000000 2.000000 0.000000 81.230469 -5.722657 19.540041 53.259644 1.477028 -1.895679 -9.311495 -57.517719 8.639707 -52.767624 6.481940 14.641938 45.454296 -4.309704 -4.084974 -4.892763 11.632332 4.813312 9.084954 -5.622618 -20.025936 10.599494 5.335376 1.132413 0.904065 -8.384472 1.474151 
83.721466 53.873093 62.606148 7.978516 -7.675781 50.917969 27.427443 -12.521927 -4.110712 -22.275391 10.283203 6.689453 51.553619 8.070152 2.616707 -74.726563 -13.720702 0.712890 2.000000 -2.000000 0.000000 -92.675781 11.464843 -4.404297 -47.455589 -1.851543 -1.775730 -13.945811 49.601963 -13.830945 -2.000000 2.000000 0.000000 80.683594 -6.699219 19.716799 53.101025 1.307149 -2.169836 -8.076147 -57.692402 7.304655 -50.826622 6.122007 14.750801 45.622013 -4.306607 -4.078881 -4.233863 11.958791 4.999490 10.732834 -5.768791 -20.281824 8.853312 5.609365 0.990521 7.722939 -8.062826 0.427440 
